<mxfile host="app.diagrams.net" modified="2021-09-16T05:17:40.254Z" agent="5.0 (Windows NT 10.0; Win64; x64) AppleWebKit/537.36 (KHTML, like Gecko) Chrome/93.0.4577.63 Safari/537.36" etag="9_Q3SLHeFqJ_cWf8CwU1" version="15.2.7" type="github">
  <diagram id="hStaRlGTMoOKlEVE0QNH" name="Page-1">
    <mxGraphModel dx="1038" dy="579" grid="1" gridSize="10" guides="1" tooltips="1" connect="1" arrows="1" fold="1" page="1" pageScale="1" pageWidth="850" pageHeight="1100" math="0" shadow="0">
      <root>
        <mxCell id="0" />
        <mxCell id="1" parent="0" />
        <mxCell id="_Oc4iHiFtoiDmurgob5S-11" style="edgeStyle=none;rounded=0;orthogonalLoop=1;jettySize=auto;html=1;exitX=0.5;exitY=1;exitDx=0;exitDy=0;entryX=0.5;entryY=0;entryDx=0;entryDy=0;" edge="1" parent="1" source="_Oc4iHiFtoiDmurgob5S-1">
          <mxGeometry relative="1" as="geometry">
            <mxPoint x="100" y="120" as="targetPoint" />
          </mxGeometry>
        </mxCell>
        <mxCell id="_Oc4iHiFtoiDmurgob5S-1" value="Slack Workplace&amp;nbsp;" style="rounded=0;whiteSpace=wrap;html=1;" vertex="1" parent="1">
          <mxGeometry x="40" y="40" width="120" height="60" as="geometry" />
        </mxCell>
        <mxCell id="_Oc4iHiFtoiDmurgob5S-18" style="edgeStyle=none;rounded=0;orthogonalLoop=1;jettySize=auto;html=1;exitX=0.5;exitY=0;exitDx=0;exitDy=0;entryX=0.5;entryY=1;entryDx=0;entryDy=0;" edge="1" parent="1" source="_Oc4iHiFtoiDmurgob5S-2">
          <mxGeometry relative="1" as="geometry">
            <mxPoint x="100" y="520" as="targetPoint" />
          </mxGeometry>
        </mxCell>
        <mxCell id="_Oc4iHiFtoiDmurgob5S-2" value="FreshTeam People Center&amp;nbsp;&amp;nbsp;" style="rounded=0;whiteSpace=wrap;html=1;" vertex="1" parent="1">
          <mxGeometry x="40" y="540" width="120" height="60" as="geometry" />
        </mxCell>
        <mxCell id="_Oc4iHiFtoiDmurgob5S-20" style="edgeStyle=none;rounded=0;orthogonalLoop=1;jettySize=auto;html=1;exitX=1;exitY=0.5;exitDx=0;exitDy=0;entryX=0;entryY=0.5;entryDx=0;entryDy=0;" edge="1" parent="1">
          <mxGeometry relative="1" as="geometry">
            <mxPoint x="160" y="410" as="sourcePoint" />
            <mxPoint x="200" y="410" as="targetPoint" />
          </mxGeometry>
        </mxCell>
        <mxCell id="_Oc4iHiFtoiDmurgob5S-15" style="edgeStyle=none;rounded=0;orthogonalLoop=1;jettySize=auto;html=1;exitX=1;exitY=0.5;exitDx=0;exitDy=0;entryX=0;entryY=0.5;entryDx=0;entryDy=0;" edge="1" parent="1">
          <mxGeometry relative="1" as="geometry">
            <mxPoint x="160" y="230" as="sourcePoint" />
            <mxPoint x="200" y="230" as="targetPoint" />
          </mxGeometry>
        </mxCell>
        <mxCell id="_Oc4iHiFtoiDmurgob5S-28" value="1. Email to HR&lt;br&gt;2. Email to Manager" style="rounded=0;whiteSpace=wrap;html=1;" vertex="1" parent="1">
          <mxGeometry x="870" y="300" width="120" height="60" as="geometry" />
        </mxCell>
        <mxCell id="_Oc4iHiFtoiDmurgob5S-31" value="Slack API" style="rounded=1;whiteSpace=wrap;html=1;" vertex="1" parent="1">
          <mxGeometry x="40" y="120" width="120" height="60" as="geometry" />
        </mxCell>
        <mxCell id="_Oc4iHiFtoiDmurgob5S-32" value="&lt;span&gt;Data Extraction&amp;nbsp;&lt;/span&gt;&lt;br&gt;&lt;span&gt;#availability channel&amp;nbsp;&lt;/span&gt;&lt;br&gt;&lt;span&gt;( Extract Username, DateTime,text)&lt;/span&gt;" style="rounded=1;whiteSpace=wrap;html=1;" vertex="1" parent="1">
          <mxGeometry x="40" y="200" width="120" height="60" as="geometry" />
        </mxCell>
        <mxCell id="_Oc4iHiFtoiDmurgob5S-41" style="edgeStyle=none;rounded=0;orthogonalLoop=1;jettySize=auto;html=1;exitX=1;exitY=0.5;exitDx=0;exitDy=0;entryX=0;entryY=0.5;entryDx=0;entryDy=0;" edge="1" parent="1" source="_Oc4iHiFtoiDmurgob5S-33" target="_Oc4iHiFtoiDmurgob5S-34">
          <mxGeometry relative="1" as="geometry" />
        </mxCell>
        <mxCell id="_Oc4iHiFtoiDmurgob5S-33" value="&lt;span&gt;Data Classification based on username&lt;/span&gt;" style="rounded=1;whiteSpace=wrap;html=1;" vertex="1" parent="1">
          <mxGeometry x="200" y="200" width="120" height="60" as="geometry" />
        </mxCell>
        <mxCell id="_Oc4iHiFtoiDmurgob5S-44" style="edgeStyle=none;rounded=0;orthogonalLoop=1;jettySize=auto;html=1;exitX=1;exitY=0.5;exitDx=0;exitDy=0;entryX=0;entryY=0.5;entryDx=0;entryDy=0;" edge="1" parent="1" source="_Oc4iHiFtoiDmurgob5S-34" target="_Oc4iHiFtoiDmurgob5S-35">
          <mxGeometry relative="1" as="geometry" />
        </mxCell>
        <mxCell id="_Oc4iHiFtoiDmurgob5S-34" value="&lt;span&gt;Data Storage on CSV&lt;/span&gt;" style="rounded=1;whiteSpace=wrap;html=1;" vertex="1" parent="1">
          <mxGeometry x="360" y="200" width="120" height="60" as="geometry" />
        </mxCell>
        <mxCell id="_Oc4iHiFtoiDmurgob5S-45" style="edgeStyle=orthogonalEdgeStyle;rounded=0;orthogonalLoop=1;jettySize=auto;html=1;exitX=0.5;exitY=1;exitDx=0;exitDy=0;entryX=0.5;entryY=0;entryDx=0;entryDy=0;" edge="1" parent="1" source="_Oc4iHiFtoiDmurgob5S-35" target="_Oc4iHiFtoiDmurgob5S-36">
          <mxGeometry relative="1" as="geometry" />
        </mxCell>
        <mxCell id="_Oc4iHiFtoiDmurgob5S-35" value="&#xa;&#xa;&lt;span style=&quot;color: rgb(0, 0, 0); font-family: helvetica; font-size: 12px; font-style: normal; font-weight: 400; letter-spacing: normal; text-align: center; text-indent: 0px; text-transform: none; word-spacing: 0px; background-color: rgb(248, 249, 250); display: inline; float: none;&quot;&gt;Text Cleaning and Processing&amp;nbsp;&lt;/span&gt;&#xa;&#xa;" style="rounded=1;whiteSpace=wrap;html=1;" vertex="1" parent="1">
          <mxGeometry x="520" y="200" width="120" height="60" as="geometry" />
        </mxCell>
        <mxCell id="_Oc4iHiFtoiDmurgob5S-50" style="edgeStyle=none;rounded=0;orthogonalLoop=1;jettySize=auto;html=1;exitX=1;exitY=0.5;exitDx=0;exitDy=0;entryX=0;entryY=0.5;entryDx=0;entryDy=0;" edge="1" parent="1" source="_Oc4iHiFtoiDmurgob5S-36" target="_Oc4iHiFtoiDmurgob5S-37">
          <mxGeometry relative="1" as="geometry" />
        </mxCell>
        <mxCell id="_Oc4iHiFtoiDmurgob5S-36" value="&lt;span&gt;Data Visualization&lt;/span&gt;" style="rounded=1;whiteSpace=wrap;html=1;" vertex="1" parent="1">
          <mxGeometry x="520" y="300" width="120" height="60" as="geometry" />
        </mxCell>
        <mxCell id="_Oc4iHiFtoiDmurgob5S-49" style="edgeStyle=none;rounded=0;orthogonalLoop=1;jettySize=auto;html=1;exitX=1;exitY=0.5;exitDx=0;exitDy=0;entryX=0;entryY=0.5;entryDx=0;entryDy=0;" edge="1" parent="1" source="_Oc4iHiFtoiDmurgob5S-37" target="_Oc4iHiFtoiDmurgob5S-28">
          <mxGeometry relative="1" as="geometry" />
        </mxCell>
        <mxCell id="_Oc4iHiFtoiDmurgob5S-37" value="&lt;span&gt;1. Report for HR&amp;nbsp; &amp;nbsp; &amp;nbsp; &amp;nbsp; &amp;nbsp; 2. Report for Manager&lt;/span&gt;" style="rounded=1;whiteSpace=wrap;html=1;" vertex="1" parent="1">
          <mxGeometry x="700" y="300" width="120" height="60" as="geometry" />
        </mxCell>
        <mxCell id="_Oc4iHiFtoiDmurgob5S-38" value="&lt;span&gt;FreshTeam API&lt;/span&gt;" style="rounded=1;whiteSpace=wrap;html=1;" vertex="1" parent="1">
          <mxGeometry x="40" y="460" width="120" height="60" as="geometry" />
        </mxCell>
        <mxCell id="_Oc4iHiFtoiDmurgob5S-39" value="&lt;span&gt;Data Extraction&amp;nbsp;&lt;/span&gt;&lt;br&gt;&lt;span&gt;(Name, Time offs, Reporting Manager)&lt;/span&gt;" style="rounded=1;whiteSpace=wrap;html=1;" vertex="1" parent="1">
          <mxGeometry x="40" y="380" width="120" height="60" as="geometry" />
        </mxCell>
        <mxCell id="_Oc4iHiFtoiDmurgob5S-43" style="edgeStyle=none;rounded=0;orthogonalLoop=1;jettySize=auto;html=1;exitX=1;exitY=0.5;exitDx=0;exitDy=0;entryX=0;entryY=0.5;entryDx=0;entryDy=0;" edge="1" parent="1" source="_Oc4iHiFtoiDmurgob5S-40" target="_Oc4iHiFtoiDmurgob5S-42">
          <mxGeometry relative="1" as="geometry" />
        </mxCell>
        <mxCell id="_Oc4iHiFtoiDmurgob5S-40" value="&lt;span&gt;Data Classification based on Reporting Manager&lt;/span&gt;" style="rounded=1;whiteSpace=wrap;html=1;" vertex="1" parent="1">
          <mxGeometry x="200" y="380" width="120" height="60" as="geometry" />
        </mxCell>
        <mxCell id="_Oc4iHiFtoiDmurgob5S-46" style="edgeStyle=orthogonalEdgeStyle;rounded=0;orthogonalLoop=1;jettySize=auto;html=1;exitX=1;exitY=0.5;exitDx=0;exitDy=0;entryX=0.5;entryY=1;entryDx=0;entryDy=0;" edge="1" parent="1" source="_Oc4iHiFtoiDmurgob5S-42" target="_Oc4iHiFtoiDmurgob5S-36">
          <mxGeometry relative="1" as="geometry" />
        </mxCell>
        <mxCell id="_Oc4iHiFtoiDmurgob5S-42" value="Data Storage on CSV" style="rounded=1;whiteSpace=wrap;html=1;" vertex="1" parent="1">
          <mxGeometry x="360" y="380" width="120" height="60" as="geometry" />
        </mxCell>
      </root>
    </mxGraphModel>
  </diagram>
</mxfile>
